<mxfile host="Electron" agent="Mozilla/5.0 (Windows NT 10.0; Win64; x64) AppleWebKit/537.36 (KHTML, like Gecko) draw.io/26.0.9 Chrome/128.0.6613.186 Electron/32.2.5 Safari/537.36" version="26.0.9">
  <diagram name="Page-1" id="pdtYOyRwjac8vWfQ2ybb">
    <mxGraphModel dx="1050" dy="621" grid="1" gridSize="10" guides="1" tooltips="1" connect="1" arrows="1" fold="1" page="1" pageScale="1" pageWidth="1169" pageHeight="827" math="0" shadow="0">
      <root>
        <mxCell id="0" />
        <mxCell id="1" parent="0" />
        <mxCell id="yoTtCKNXi9okPHkAMERr-1" value="&lt;b&gt;&lt;font style=&quot;font-size: 14px;&quot;&gt;Anforderungs-analyse&lt;/font&gt;&lt;/b&gt;" style="rounded=0;whiteSpace=wrap;html=1;fillColor=#dae8fc;strokeColor=#6c8ebf;opacity=50;" vertex="1" parent="1">
          <mxGeometry x="230" y="160" width="120" height="40" as="geometry" />
        </mxCell>
        <mxCell id="yoTtCKNXi9okPHkAMERr-2" value="&lt;b&gt;Systemdesign&lt;/b&gt;" style="rounded=0;whiteSpace=wrap;html=1;fillColor=#dae8fc;strokeColor=#6c8ebf;opacity=50;fontSize=14;" vertex="1" parent="1">
          <mxGeometry x="260" y="220" width="120" height="40" as="geometry" />
        </mxCell>
        <mxCell id="yoTtCKNXi9okPHkAMERr-3" value="&lt;b&gt;Architektur-&lt;/b&gt;&lt;div&gt;&lt;b&gt;design&lt;/b&gt;&lt;/div&gt;" style="rounded=0;whiteSpace=wrap;html=1;fillColor=#dae8fc;strokeColor=#6c8ebf;opacity=50;fontSize=14;" vertex="1" parent="1">
          <mxGeometry x="300" y="280" width="120" height="40" as="geometry" />
        </mxCell>
        <mxCell id="yoTtCKNXi9okPHkAMERr-4" value="&lt;b&gt;Komponenten-&lt;/b&gt;&lt;div&gt;&lt;b&gt;design&lt;/b&gt;&lt;/div&gt;" style="rounded=0;whiteSpace=wrap;html=1;fillColor=#dae8fc;strokeColor=#6c8ebf;opacity=50;fontSize=14;" vertex="1" parent="1">
          <mxGeometry x="340" y="340" width="120" height="40" as="geometry" />
        </mxCell>
        <mxCell id="yoTtCKNXi9okPHkAMERr-6" value="&lt;b&gt;Implementierung&lt;/b&gt;" style="rounded=0;whiteSpace=wrap;html=1;fillColor=#66B2FF;strokeColor=#6c8ebf;opacity=50;fontSize=14;" vertex="1" parent="1">
          <mxGeometry x="430" y="400" width="140" height="40" as="geometry" />
        </mxCell>
        <mxCell id="yoTtCKNXi9okPHkAMERr-7" value="&lt;b&gt;Komponenten-&lt;/b&gt;&lt;div&gt;&lt;b&gt;test&lt;/b&gt;&lt;/div&gt;" style="rounded=0;whiteSpace=wrap;html=1;fillColor=#dae8fc;strokeColor=#6c8ebf;opacity=50;fontSize=14;" vertex="1" parent="1">
          <mxGeometry x="540" y="340" width="120" height="40" as="geometry" />
        </mxCell>
        <mxCell id="yoTtCKNXi9okPHkAMERr-10" value="&lt;b&gt;Integrations-&lt;/b&gt;&lt;div&gt;&lt;b&gt;test&lt;/b&gt;&lt;/div&gt;" style="rounded=0;whiteSpace=wrap;html=1;fillColor=#dae8fc;strokeColor=#6c8ebf;opacity=50;fontSize=14;" vertex="1" parent="1">
          <mxGeometry x="580" y="280" width="120" height="40" as="geometry" />
        </mxCell>
        <mxCell id="yoTtCKNXi9okPHkAMERr-11" value="&lt;b&gt;Systemtest&lt;/b&gt;" style="rounded=0;whiteSpace=wrap;html=1;fillColor=#dae8fc;strokeColor=#6c8ebf;opacity=50;fontSize=14;" vertex="1" parent="1">
          <mxGeometry x="620" y="220" width="120" height="40" as="geometry" />
        </mxCell>
        <mxCell id="yoTtCKNXi9okPHkAMERr-12" value="&lt;div&gt;&lt;b&gt;&lt;font style=&quot;font-size: 14px;&quot;&gt;Abnahmetest&lt;/font&gt;&lt;/b&gt;&lt;/div&gt;" style="rounded=0;whiteSpace=wrap;html=1;fillColor=#dae8fc;strokeColor=#6c8ebf;opacity=50;" vertex="1" parent="1">
          <mxGeometry x="650" y="160" width="120" height="40" as="geometry" />
        </mxCell>
        <mxCell id="yoTtCKNXi9okPHkAMERr-13" value="" style="endArrow=classic;html=1;rounded=0;exitX=1;exitY=0.5;exitDx=0;exitDy=0;entryX=0.5;entryY=0;entryDx=0;entryDy=0;strokeWidth=4;dashed=1;strokeColor=#808080;" edge="1" parent="1" source="yoTtCKNXi9okPHkAMERr-1" target="yoTtCKNXi9okPHkAMERr-6">
          <mxGeometry width="50" height="50" relative="1" as="geometry">
            <mxPoint x="330" y="110" as="sourcePoint" />
            <mxPoint x="380" y="60" as="targetPoint" />
          </mxGeometry>
        </mxCell>
        <mxCell id="yoTtCKNXi9okPHkAMERr-14" value="" style="endArrow=classic;html=1;rounded=0;exitX=0.5;exitY=0;exitDx=0;exitDy=0;entryX=0;entryY=0.5;entryDx=0;entryDy=0;strokeWidth=4;dashed=1;strokeColor=#808080;" edge="1" parent="1" source="yoTtCKNXi9okPHkAMERr-6" target="yoTtCKNXi9okPHkAMERr-12">
          <mxGeometry width="50" height="50" relative="1" as="geometry">
            <mxPoint x="450" y="140" as="sourcePoint" />
            <mxPoint x="600" y="360" as="targetPoint" />
          </mxGeometry>
        </mxCell>
        <mxCell id="yoTtCKNXi9okPHkAMERr-15" value="" style="endArrow=classic;html=1;rounded=0;strokeColor=#808080;dashed=1;strokeWidth=2;" edge="1" parent="1">
          <mxGeometry width="50" height="50" relative="1" as="geometry">
            <mxPoint x="520" y="360" as="sourcePoint" />
            <mxPoint x="480" y="360" as="targetPoint" />
          </mxGeometry>
        </mxCell>
        <mxCell id="yoTtCKNXi9okPHkAMERr-16" value="" style="endArrow=classic;html=1;rounded=0;strokeColor=#808080;dashed=1;strokeWidth=2;" edge="1" parent="1">
          <mxGeometry width="50" height="50" relative="1" as="geometry">
            <mxPoint x="560" y="300" as="sourcePoint" />
            <mxPoint x="440" y="299.5" as="targetPoint" />
          </mxGeometry>
        </mxCell>
        <mxCell id="yoTtCKNXi9okPHkAMERr-17" value="" style="endArrow=classic;html=1;rounded=0;strokeColor=#000000;dashed=1;strokeWidth=2;" edge="1" parent="1">
          <mxGeometry width="50" height="50" relative="1" as="geometry">
            <mxPoint x="600" y="240" as="sourcePoint" />
            <mxPoint x="400" y="239.5" as="targetPoint" />
          </mxGeometry>
        </mxCell>
        <mxCell id="yoTtCKNXi9okPHkAMERr-19" value="Text" style="edgeLabel;html=1;align=center;verticalAlign=middle;resizable=0;points=[];" vertex="1" connectable="0" parent="yoTtCKNXi9okPHkAMERr-17">
          <mxGeometry x="-0.108" y="2" relative="1" as="geometry">
            <mxPoint x="-11" y="-2" as="offset" />
          </mxGeometry>
        </mxCell>
        <mxCell id="yoTtCKNXi9okPHkAMERr-20" value="&lt;font style=&quot;font-size: 14px;&quot;&gt;&lt;b&gt;Validierung&lt;/b&gt;&lt;/font&gt;" style="edgeLabel;html=1;align=center;verticalAlign=middle;resizable=0;points=[];" vertex="1" connectable="0" parent="yoTtCKNXi9okPHkAMERr-17">
          <mxGeometry x="0.002" y="-1" relative="1" as="geometry">
            <mxPoint as="offset" />
          </mxGeometry>
        </mxCell>
        <mxCell id="yoTtCKNXi9okPHkAMERr-18" value="" style="endArrow=classic;html=1;rounded=0;strokeColor=#808080;dashed=1;strokeWidth=2;" edge="1" parent="1">
          <mxGeometry width="50" height="50" relative="1" as="geometry">
            <mxPoint x="640" y="180" as="sourcePoint" />
            <mxPoint x="360" y="179.5" as="targetPoint" />
          </mxGeometry>
        </mxCell>
      </root>
    </mxGraphModel>
  </diagram>
</mxfile>
